<svg xmlns="http://www.w3.org/2000/svg" version="1.1" xmlns:xlink="http://www.w3.org/1999/xlink" xmlns:svgjs="http://svgjs.dev/svgjs" width="2000" height="525" viewBox="0 0 2000 525"><g transform="matrix(1,0,0,1,-1.2121212121212466,-0.20353530936017705)"><svg viewBox="0 0 396 104" data-background-color="#dbefed" preserveAspectRatio="xMidYMid meet" height="525" width="2000" xmlns="http://www.w3.org/2000/svg" xmlns:xlink="http://www.w3.org/1999/xlink"><g id="tight-bounds" transform="matrix(1,0,0,1,0.2400000000000091,0.04031937556848675)"><svg viewBox="0 0 395.52 103.91936124886301" height="103.91936124886301" width="395.52"><g><svg viewBox="0 0 564.2153080129304 148.24255262827225" height="103.91936124886301" width="395.52"><g transform="matrix(1,0,0,1,168.6953080129305,20.487936000000005)"><svg viewBox="0 0 395.52 107.26668062827224" height="107.26668062827224" width="395.52"><g id="textblocktransform"><svg viewBox="0 0 395.52 107.26668062827224" height="107.26668062827224" width="395.52" id="textblock"><g><svg viewBox="0 0 395.52 107.26668062827224" height="107.26668062827224" width="395.52"><g transform="matrix(1,0,0,1,0,0)"><svg width="395.52" viewBox="4.3 -37.45 139.88 37.940000000000005" height="107.26668062827224" data-palette-color="url(#678777c8-2fe4-4f15-a4df-7b9b4fef1c8f)"></svg></g></svg></g></svg></g></svg></g><g><svg viewBox="0 0 143.3722191169305 148.24255262827225" height="148.24255262827225" width="143.3722191169305"><g><svg xmlns="http://www.w3.org/2000/svg" xmlns:xlink="http://www.w3.org/1999/xlink" version="1.1" x="0" y="0" viewBox="7.487339512935998 6.066 84.025660487064 86.88" enable-background="new 0 0 100 100" xml:space="preserve" height="148.24255262827225" width="143.3722191169305" class="icon-icon-0" data-fill-palette-color="accent" id="icon-0"></svg></g></svg></g></svg></g><defs></defs><mask id="ea235e18-e4e7-412e-b76f-b31fc385b3e4"><g id="SvgjsG1004"><svg viewBox="0 0 395.52 103.91936124886301" height="103.91936124886301" width="395.52"><g><svg viewBox="0 0 564.2153080129304 148.24255262827225" height="103.91936124886301" width="395.52"><g transform="matrix(1,0,0,1,168.6953080129305,20.487936000000005)"><svg viewBox="0 0 395.52 107.26668062827224" height="107.26668062827224" width="395.52"><g id="SvgjsG1003"><svg viewBox="0 0 395.52 107.26668062827224" height="107.26668062827224" width="395.52" id="SvgjsSvg1002"><g><svg viewBox="0 0 395.52 107.26668062827224" height="107.26668062827224" width="395.52"><g transform="matrix(1,0,0,1,0,0)"><svg width="395.52" viewBox="4.3 -37.45 139.88 37.940000000000005" height="107.26668062827224" data-palette-color="url(#678777c8-2fe4-4f15-a4df-7b9b4fef1c8f)"><path d="M4.3 0L4.3-25.88 7.91-25.88 8.64-21.39Q9.47-22.17 10.56-23.05 11.65-23.93 12.88-24.66 14.11-25.39 15.44-25.88 16.77-26.37 18.12-26.37L18.12-26.37Q19.21-26.37 20.29-26 21.36-25.63 22.28-24.98 23.19-24.32 23.91-23.38 24.63-22.44 25.05-21.29L25.05-21.29Q25.95-22.09 27.03-22.99 28.1-23.88 29.31-24.63 30.52-25.39 31.88-25.88 33.25-26.37 34.77-26.37L34.77-26.37Q36.55-26.37 37.98-25.67 39.4-24.98 40.41-23.73 41.41-22.49 41.94-20.79 42.48-19.09 42.48-17.09L42.48-17.09 42.48 0 37.84 0 37.84-16.7Q37.84-18.02 37.49-19.08 37.13-20.14 36.47-20.9 35.82-21.66 34.88-22.06 33.94-22.46 32.76-22.46L32.76-22.46Q31.76-22.46 30.87-22.17 29.98-21.88 29.11-21.35 28.25-20.83 27.38-20.09 26.51-19.36 25.61-18.51L25.61-18.51Q25.66-18.16 25.67-17.83 25.68-17.5 25.68-17.09L25.68-17.09 25.68 0 21.04 0 21.04-16.7Q21.04-18.02 20.68-19.08 20.31-20.14 19.64-20.9 18.97-21.66 18.02-22.06 17.07-22.46 15.92-22.46L15.92-22.46Q14.94-22.46 14.06-22.17 13.18-21.88 12.34-21.35 11.5-20.83 10.66-20.1 9.81-19.38 8.94-18.55L8.94-18.55 8.94 0 4.3 0ZM61.77 0.49L61.77 0.49Q58.88 0.49 56.64-0.54 54.39-1.56 52.84-3.3 51.29-5.03 50.47-7.34 49.66-9.64 49.66-12.21L49.66-12.21Q49.66-15.14 50.69-17.71 51.73-20.29 53.57-22.22 55.42-24.15 57.96-25.26 60.5-26.37 63.47-26.37L63.47-26.37Q66.38-26.37 68.65-25.33 70.92-24.29 72.47-22.53 74.02-20.78 74.83-18.47 75.63-16.16 75.63-13.62L75.63-13.62Q75.63-10.67 74.58-8.09 73.53-5.52 71.68-3.61 69.82-1.71 67.28-0.61 64.74 0.49 61.77 0.49ZM62.79-3.22L62.79-3.22Q64.57-3.22 66.03-3.94 67.48-4.66 68.52-5.91 69.55-7.15 70.13-8.85 70.7-10.55 70.7-12.5L70.7-12.5Q70.7-14.43 70.14-16.25 69.58-18.07 68.52-19.49 67.45-20.92 65.92-21.79 64.38-22.66 62.45-22.66L62.45-22.66Q60.67-22.66 59.21-21.94 57.76-21.22 56.72-19.96 55.69-18.7 55.11-16.99 54.54-15.28 54.54-13.33L54.54-13.33Q54.54-11.4 55.1-9.58 55.66-7.76 56.72-6.35 57.79-4.93 59.31-4.08 60.84-3.22 62.79-3.22ZM88.96 0L79.29-25.88 84.52-25.88 90.28-7.96 91.35-3.71 91.84-3.71 92.87-7.96 98.68-25.88 103.46-25.88 93.75 0 88.96 0ZM109.2 0L109.2-25.88 113.84-25.88 113.84 0 109.2 0ZM111.54-31.49L111.54-31.49Q110.93-31.49 110.39-31.71 109.86-31.93 109.47-32.32 109.07-32.71 108.85-33.24 108.64-33.76 108.64-34.4L108.64-34.4Q108.64-35.03 108.88-35.6 109.12-36.16 109.53-36.57 109.93-36.99 110.48-37.22 111.03-37.45 111.64-37.45L111.64-37.45Q112.22-37.45 112.75-37.22 113.27-36.99 113.66-36.57 114.06-36.16 114.27-35.61 114.49-35.06 114.49-34.45L114.49-34.45Q114.49-33.79 114.25-33.24 114.01-32.69 113.6-32.31 113.2-31.93 112.66-31.71 112.13-31.49 111.54-31.49ZM124.21 0L119.42 0 129.19-13.4 120.23-25.88 125.65-25.88 129.75-19.48 131.66-15.92 132.14-15.92 134.19-19.48 138.59-25.88 143.37-25.88 134.12-13.62 144.18 0 138.76 0 133.88-7.28 131.8-11.04 131.31-11.04 129.24-7.37 124.21 0Z" opacity="1" transform="matrix(1,0,0,1,0,0)" fill="white" class="wordmark-text-0" id="SvgjsPath1001"></path></svg></g></svg></g></svg></g></svg></g><g><svg viewBox="0 0 143.3722191169305 148.24255262827225" height="148.24255262827225" width="143.3722191169305"><g><svg xmlns="http://www.w3.org/2000/svg" xmlns:xlink="http://www.w3.org/1999/xlink" version="1.1" x="0" y="0" viewBox="7.487339512935998 6.066 84.025660487064 86.88" enable-background="new 0 0 100 100" xml:space="preserve" height="148.24255262827225" width="143.3722191169305" class="icon-icon-0" data-fill-palette-color="accent" id="SvgjsSvg1000"><rect x="34.571" y="16.321" fill="black" width="5.716" height="5.716"></rect><rect x="34.571" y="28.368" fill="black" width="5.716" height="5.716"></rect><rect x="34.571" y="40.416" fill="black" width="5.716" height="5.716"></rect><rect x="34.571" y="52.464" fill="black" width="5.716" height="5.716"></rect><rect x="80.349" y="16.321" fill="black" width="5.716" height="5.716"></rect><rect x="80.349" y="28.368" fill="black" width="5.716" height="5.716"></rect><rect x="80.349" y="40.416" fill="black" width="5.716" height="5.716"></rect><rect x="80.349" y="52.464" fill="black" width="5.716" height="5.716"></rect><path fill="black" d="M52.324 50.356c-0.188 0-0.375-0.048-0.546-0.142-0.354-0.199-0.572-0.572-0.572-0.975V26.271c0-0.404 0.218-0.777 0.572-0.975 0.354-0.194 0.786-0.19 1.13 0.024l18.704 11.483c0.332 0.203 0.532 0.563 0.532 0.951 0 0.389-0.201 0.749-0.532 0.951L52.909 50.19C52.73 50.301 52.527 50.356 52.324 50.356zM53.442 28.268v18.974l15.45-9.488L53.442 28.268z"></path><path fill="black" d="M81.978 8.301c4.025 0 7.3 3.275 7.3 7.3V59.3c0 4.025-3.275 7.3-7.3 7.3H38.279c-4.025 0-7.3-3.275-7.3-7.3V15.601c0-4.025 3.275-7.3 7.3-7.3H81.978M81.978 6.066H38.279c-5.266 0-9.535 4.269-9.535 9.535V59.3c0 5.266 4.269 9.535 9.535 9.535h43.699c5.266 0 9.535-4.269 9.535-9.535V15.601C91.512 10.335 87.243 6.066 81.978 6.066L81.978 6.066z"></path><path fill="black" d="M74.63 71.069h-2.299l0.225 0.924c0.478 1.957 0.164 3.985-0.884 5.706-1.048 1.722-2.704 2.931-4.661 3.409l-38.573 9.386c-1.953 0.474-3.98 0.164-5.706-0.886-1.722-1.047-2.931-2.704-3.409-4.661l-9.383-38.57c-0.478-1.957-0.161-3.985 0.886-5.706 1.047-1.722 2.704-2.931 4.661-3.409l11.023-2.682V32.28l-11.551 2.809c-2.538 0.618-4.683 2.187-6.043 4.419-1.357 2.23-1.765 4.858-1.148 7.396l9.386 38.57c0.615 2.538 2.184 4.683 4.417 6.043 1.552 0.943 3.293 1.429 5.065 1.429 0.775 0 1.558-0.094 2.331-0.284l38.573-9.386c2.538-0.615 4.683-2.184 6.04-4.417 1.36-2.23 1.765-4.858 1.148-7.396L74.63 71.069z"></path></svg></g></svg></g></svg></g><defs><mask></mask></defs></svg><rect width="395.52" height="103.91936124886301" fill="black" stroke="none" visibility="hidden"></rect></g></mask><linearGradient x1="0" x2="1" y1="0.5" y2="0.5" id="678777c8-2fe4-4f15-a4df-7b9b4fef1c8f"><stop stop-color="#ffa62e" offset="0"></stop><stop stop-color="#f71b3d" offset="1"></stop></linearGradient><rect width="395.52" height="103.91936124886301" fill="url(#678777c8-2fe4-4f15-a4df-7b9b4fef1c8f)" mask="url(#ea235e18-e4e7-412e-b76f-b31fc385b3e4)" data-fill-palette-color="primary"></rect><mask id="6e142c61-0420-4638-bfc5-48c1844d6209"><g id="SvgjsG1013"><svg viewBox="0 0 395.52 103.91936124886301" height="103.91936124886301" width="395.52"><g><svg viewBox="0 0 564.2153080129304 148.24255262827225" height="103.91936124886301" width="395.52"><g transform="matrix(1,0,0,1,168.6953080129305,20.487936000000005)"><svg viewBox="0 0 395.52 107.26668062827224" height="107.26668062827224" width="395.52"><g id="SvgjsG1012"><svg viewBox="0 0 395.52 107.26668062827224" height="107.26668062827224" width="395.52" id="SvgjsSvg1011"><g><svg viewBox="0 0 395.52 107.26668062827224" height="107.26668062827224" width="395.52"><g transform="matrix(1,0,0,1,0,0)"><svg width="395.52" viewBox="4.3 -37.45 139.88 37.940000000000005" height="107.26668062827224" data-palette-color="url(#678777c8-2fe4-4f15-a4df-7b9b4fef1c8f)"></svg></g></svg></g></svg></g></svg></g><g><svg viewBox="0 0 143.3722191169305 148.24255262827225" height="148.24255262827225" width="143.3722191169305"><g><svg xmlns="http://www.w3.org/2000/svg" xmlns:xlink="http://www.w3.org/1999/xlink" version="1.1" x="0" y="0" viewBox="7.487339512935998 6.066 84.025660487064 86.88" enable-background="new 0 0 100 100" xml:space="preserve" height="148.24255262827225" width="143.3722191169305" class="icon-icon-0" data-fill-palette-color="accent" id="SvgjsSvg1010"><rect x="34.571" y="16.321" fill="white" width="5.716" height="5.716"></rect><rect x="34.571" y="28.368" fill="white" width="5.716" height="5.716"></rect><rect x="34.571" y="40.416" fill="white" width="5.716" height="5.716"></rect><rect x="34.571" y="52.464" fill="white" width="5.716" height="5.716"></rect><rect x="80.349" y="16.321" fill="white" width="5.716" height="5.716"></rect><rect x="80.349" y="28.368" fill="white" width="5.716" height="5.716"></rect><rect x="80.349" y="40.416" fill="white" width="5.716" height="5.716"></rect><rect x="80.349" y="52.464" fill="white" width="5.716" height="5.716"></rect><path fill="white" d="M52.324 50.356c-0.188 0-0.375-0.048-0.546-0.142-0.354-0.199-0.572-0.572-0.572-0.975V26.271c0-0.404 0.218-0.777 0.572-0.975 0.354-0.194 0.786-0.19 1.13 0.024l18.704 11.483c0.332 0.203 0.532 0.563 0.532 0.951 0 0.389-0.201 0.749-0.532 0.951L52.909 50.19C52.73 50.301 52.527 50.356 52.324 50.356zM53.442 28.268v18.974l15.45-9.488L53.442 28.268z"></path><path fill="white" d="M81.978 8.301c4.025 0 7.3 3.275 7.3 7.3V59.3c0 4.025-3.275 7.3-7.3 7.3H38.279c-4.025 0-7.3-3.275-7.3-7.3V15.601c0-4.025 3.275-7.3 7.3-7.3H81.978M81.978 6.066H38.279c-5.266 0-9.535 4.269-9.535 9.535V59.3c0 5.266 4.269 9.535 9.535 9.535h43.699c5.266 0 9.535-4.269 9.535-9.535V15.601C91.512 10.335 87.243 6.066 81.978 6.066L81.978 6.066z"></path><path fill="white" d="M74.63 71.069h-2.299l0.225 0.924c0.478 1.957 0.164 3.985-0.884 5.706-1.048 1.722-2.704 2.931-4.661 3.409l-38.573 9.386c-1.953 0.474-3.98 0.164-5.706-0.886-1.722-1.047-2.931-2.704-3.409-4.661l-9.383-38.57c-0.478-1.957-0.161-3.985 0.886-5.706 1.047-1.722 2.704-2.931 4.661-3.409l11.023-2.682V32.28l-11.551 2.809c-2.538 0.618-4.683 2.187-6.043 4.419-1.357 2.23-1.765 4.858-1.148 7.396l9.386 38.57c0.615 2.538 2.184 4.683 4.417 6.043 1.552 0.943 3.293 1.429 5.065 1.429 0.775 0 1.558-0.094 2.331-0.284l38.573-9.386c2.538-0.615 4.683-2.184 6.04-4.417 1.36-2.23 1.765-4.858 1.148-7.396L74.63 71.069z"></path></svg></g></svg></g></svg></g><defs><mask></mask></defs><mask><g id="SvgjsG1009"><svg viewBox="0 0 395.52 103.91936124886301" height="103.91936124886301" width="395.52"><g><svg viewBox="0 0 564.2153080129304 148.24255262827225" height="103.91936124886301" width="395.52"><g transform="matrix(1,0,0,1,168.6953080129305,20.487936000000005)"><svg viewBox="0 0 395.52 107.26668062827224" height="107.26668062827224" width="395.52"><g id="SvgjsG1008"><svg viewBox="0 0 395.52 107.26668062827224" height="107.26668062827224" width="395.52" id="SvgjsSvg1007"><g><svg viewBox="0 0 395.52 107.26668062827224" height="107.26668062827224" width="395.52"><g transform="matrix(1,0,0,1,0,0)"><svg width="395.52" viewBox="4.3 -37.45 139.88 37.940000000000005" height="107.26668062827224" data-palette-color="url(#678777c8-2fe4-4f15-a4df-7b9b4fef1c8f)"><path d="M4.3 0L4.3-25.88 7.91-25.88 8.64-21.39Q9.47-22.17 10.56-23.05 11.65-23.93 12.88-24.66 14.11-25.39 15.44-25.88 16.77-26.37 18.12-26.37L18.12-26.37Q19.21-26.37 20.29-26 21.36-25.63 22.28-24.98 23.19-24.32 23.91-23.38 24.63-22.44 25.05-21.29L25.05-21.29Q25.95-22.09 27.03-22.99 28.1-23.88 29.31-24.63 30.52-25.39 31.88-25.88 33.25-26.37 34.77-26.37L34.77-26.37Q36.55-26.37 37.98-25.67 39.4-24.98 40.41-23.73 41.41-22.49 41.94-20.79 42.48-19.09 42.48-17.09L42.48-17.09 42.48 0 37.84 0 37.84-16.7Q37.84-18.02 37.49-19.08 37.13-20.14 36.47-20.9 35.82-21.66 34.88-22.06 33.94-22.46 32.76-22.46L32.76-22.46Q31.76-22.46 30.87-22.17 29.98-21.88 29.11-21.35 28.25-20.83 27.38-20.09 26.51-19.36 25.61-18.51L25.61-18.51Q25.66-18.16 25.67-17.83 25.68-17.5 25.68-17.09L25.68-17.09 25.68 0 21.04 0 21.04-16.7Q21.04-18.02 20.68-19.08 20.31-20.14 19.64-20.9 18.97-21.66 18.02-22.06 17.07-22.46 15.92-22.46L15.92-22.46Q14.94-22.46 14.06-22.17 13.18-21.88 12.34-21.35 11.5-20.83 10.66-20.1 9.81-19.38 8.94-18.55L8.94-18.55 8.94 0 4.3 0ZM61.77 0.49L61.77 0.49Q58.88 0.49 56.64-0.54 54.39-1.56 52.84-3.3 51.29-5.03 50.47-7.34 49.66-9.64 49.66-12.21L49.66-12.21Q49.66-15.14 50.69-17.71 51.73-20.29 53.57-22.22 55.42-24.15 57.96-25.26 60.5-26.37 63.47-26.37L63.47-26.37Q66.38-26.37 68.65-25.33 70.92-24.29 72.47-22.53 74.02-20.78 74.83-18.47 75.63-16.16 75.63-13.62L75.63-13.62Q75.63-10.67 74.58-8.09 73.53-5.52 71.68-3.61 69.82-1.71 67.28-0.61 64.74 0.49 61.77 0.49ZM62.79-3.22L62.79-3.22Q64.57-3.22 66.03-3.94 67.48-4.66 68.52-5.91 69.55-7.15 70.13-8.85 70.7-10.55 70.7-12.5L70.7-12.5Q70.7-14.43 70.14-16.25 69.58-18.07 68.52-19.49 67.45-20.92 65.92-21.79 64.38-22.66 62.45-22.66L62.45-22.66Q60.67-22.66 59.21-21.94 57.76-21.22 56.72-19.96 55.69-18.7 55.11-16.99 54.54-15.28 54.54-13.33L54.54-13.33Q54.54-11.4 55.1-9.58 55.66-7.76 56.72-6.35 57.79-4.93 59.31-4.08 60.84-3.22 62.79-3.22ZM88.96 0L79.29-25.88 84.52-25.88 90.28-7.96 91.35-3.71 91.84-3.71 92.87-7.96 98.68-25.88 103.46-25.88 93.75 0 88.96 0ZM109.2 0L109.2-25.88 113.84-25.88 113.84 0 109.2 0ZM111.54-31.49L111.54-31.49Q110.93-31.49 110.39-31.71 109.86-31.93 109.47-32.32 109.07-32.71 108.85-33.24 108.64-33.76 108.64-34.4L108.64-34.4Q108.64-35.03 108.88-35.6 109.12-36.16 109.53-36.57 109.93-36.99 110.48-37.22 111.03-37.45 111.64-37.45L111.64-37.45Q112.22-37.45 112.75-37.22 113.27-36.99 113.66-36.57 114.06-36.16 114.27-35.61 114.49-35.06 114.49-34.45L114.49-34.45Q114.49-33.79 114.25-33.24 114.01-32.69 113.6-32.31 113.2-31.93 112.66-31.71 112.13-31.49 111.54-31.49ZM124.21 0L119.42 0 129.19-13.4 120.23-25.88 125.65-25.88 129.75-19.48 131.66-15.92 132.14-15.92 134.19-19.48 138.59-25.88 143.37-25.88 134.12-13.62 144.18 0 138.76 0 133.88-7.28 131.8-11.04 131.31-11.04 129.24-7.37 124.21 0Z" opacity="1" transform="matrix(1,0,0,1,0,0)" fill="black" class="wordmark-text-0" id="SvgjsPath1006"></path></svg></g></svg></g></svg></g></svg></g><g><svg viewBox="0 0 143.3722191169305 148.24255262827225" height="148.24255262827225" width="143.3722191169305"><g><svg xmlns="http://www.w3.org/2000/svg" xmlns:xlink="http://www.w3.org/1999/xlink" version="1.1" x="0" y="0" viewBox="7.487339512935998 6.066 84.025660487064 86.88" enable-background="new 0 0 100 100" xml:space="preserve" height="148.24255262827225" width="143.3722191169305" class="icon-icon-0" data-fill-palette-color="accent" id="SvgjsSvg1005"><rect x="34.571" y="16.321" fill="black" width="5.716" height="5.716"></rect><rect x="34.571" y="28.368" fill="black" width="5.716" height="5.716"></rect><rect x="34.571" y="40.416" fill="black" width="5.716" height="5.716"></rect><rect x="34.571" y="52.464" fill="black" width="5.716" height="5.716"></rect><rect x="80.349" y="16.321" fill="black" width="5.716" height="5.716"></rect><rect x="80.349" y="28.368" fill="black" width="5.716" height="5.716"></rect><rect x="80.349" y="40.416" fill="black" width="5.716" height="5.716"></rect><rect x="80.349" y="52.464" fill="black" width="5.716" height="5.716"></rect><path fill="black" d="M52.324 50.356c-0.188 0-0.375-0.048-0.546-0.142-0.354-0.199-0.572-0.572-0.572-0.975V26.271c0-0.404 0.218-0.777 0.572-0.975 0.354-0.194 0.786-0.19 1.13 0.024l18.704 11.483c0.332 0.203 0.532 0.563 0.532 0.951 0 0.389-0.201 0.749-0.532 0.951L52.909 50.19C52.73 50.301 52.527 50.356 52.324 50.356zM53.442 28.268v18.974l15.45-9.488L53.442 28.268z"></path><path fill="black" d="M81.978 8.301c4.025 0 7.3 3.275 7.3 7.3V59.3c0 4.025-3.275 7.3-7.3 7.3H38.279c-4.025 0-7.3-3.275-7.3-7.3V15.601c0-4.025 3.275-7.3 7.3-7.3H81.978M81.978 6.066H38.279c-5.266 0-9.535 4.269-9.535 9.535V59.3c0 5.266 4.269 9.535 9.535 9.535h43.699c5.266 0 9.535-4.269 9.535-9.535V15.601C91.512 10.335 87.243 6.066 81.978 6.066L81.978 6.066z"></path><path fill="black" d="M74.63 71.069h-2.299l0.225 0.924c0.478 1.957 0.164 3.985-0.884 5.706-1.048 1.722-2.704 2.931-4.661 3.409l-38.573 9.386c-1.953 0.474-3.98 0.164-5.706-0.886-1.722-1.047-2.931-2.704-3.409-4.661l-9.383-38.57c-0.478-1.957-0.161-3.985 0.886-5.706 1.047-1.722 2.704-2.931 4.661-3.409l11.023-2.682V32.28l-11.551 2.809c-2.538 0.618-4.683 2.187-6.043 4.419-1.357 2.23-1.765 4.858-1.148 7.396l9.386 38.57c0.615 2.538 2.184 4.683 4.417 6.043 1.552 0.943 3.293 1.429 5.065 1.429 0.775 0 1.558-0.094 2.331-0.284l38.573-9.386c2.538-0.615 4.683-2.184 6.04-4.417 1.36-2.23 1.765-4.858 1.148-7.396L74.63 71.069z"></path></svg></g></svg></g></svg></g><defs><mask></mask></defs></svg><rect width="395.52" height="103.91936124886301" fill="black" stroke="none" visibility="hidden"></rect></g></mask></svg><rect width="395.52" height="103.91936124886301" fill="black" stroke="none" visibility="hidden"></rect></g></mask><linearGradient x1="0.054" x2="0.941" y1="0.5" y2="0.5" id="c7102414-4b7d-4d5d-aabd-73eaa6d08cf1"><stop stop-color="#8c8c8c" offset="0"></stop><stop stop-color="#e3e4e5" offset="0.498"></stop><stop stop-color="#8c8c8c" offset="1"></stop></linearGradient><rect width="395.52" height="103.91936124886301" fill="url(#c7102414-4b7d-4d5d-aabd-73eaa6d08cf1)" mask="url(#6e142c61-0420-4638-bfc5-48c1844d6209)" data-fill-palette-color="accent"></rect></svg><rect width="395.52" height="103.91936124886301" fill="none" stroke="none" visibility="hidden"></rect></g></svg></g></svg>